<svg id="Layer_1" data-name="Layer 1" xmlns="http://www.w3.org/2000/svg" viewBox="0 0 96.43 31.67"><defs><style>.cls-1{fill:#fff;}</style></defs><title>cliommit_logo</title><path class="cls-1" d="M66.24,13.45c1,0,1,0,1.21.91,2.08-1.53,3.4-1.82,5,.17.71-.24,1.15-.89,1.84-1.21a2.34,2.34,0,0,1,3.17,1.73,31.67,31.67,0,0,1,.23,4.56.86.86,0,0,1,0,.28c-.12.42-.11,1-.78.94s-.55-.54-.55-1c0-1.12,0-2.23,0-3.35,0-1.37-.48-2.19-1.31-2.32A2.51,2.51,0,0,0,72.69,16a6.23,6.23,0,0,0-.15,3.42,1.14,1.14,0,0,1-.63,1.47c-.65-.13-.59-.62-.59-1.09,0-1.34,0-2.69,0-4a1.6,1.6,0,0,0-2.06-1.48,2.73,2.73,0,0,0-1.65,2.21c0,1,0,2,0,3.07a1.2,1.2,0,0,1-.87,1.35,1.52,1.52,0,0,1-.48-1.19Z"/><path class="cls-1" d="M63.45,20.78a33.79,33.79,0,0,1-.07-4A3.5,3.5,0,0,0,63,15a1.5,1.5,0,0,0-2.33-.52A3,3,0,0,0,59.41,17c0,1,0,1.95,0,2.93,0,.61-.21,1-1.1.88,0-1.32,0-2.65,0-4A3.48,3.48,0,0,0,57.88,15,1.31,1.31,0,0,0,56,14.32,2.67,2.67,0,0,0,54.34,17c0,1,0,2,0,3.06,0,.64-.31.93-1,.75V13.54c.81-.57,1,.09,1.23.76a3.54,3.54,0,0,1,2.94-1.16,2.72,2.72,0,0,1,1.83,1.58c.74-.6,1.28-1.41,2.37-1.52a2.24,2.24,0,0,1,2.59,1.69A24.36,24.36,0,0,1,64.48,20C64.5,20.63,64.2,21,63.45,20.78Z"/><path class="cls-1" d="M36,12.85a.88.88,0,0,1-1.39-.24c-1.06-1.42-3.69-1.23-4.9.11a4.22,4.22,0,0,0-.86,4.38A3.68,3.68,0,0,0,31,19.51a3.23,3.23,0,0,0,3.81-.87c.64-.68.68-.64,1.47,0a4.59,4.59,0,0,1-4.65,2.19,5.1,5.1,0,0,1-3.91-3.39,4.81,4.81,0,0,1,.37-4.36,4.68,4.68,0,0,1,3.23-2.43A4,4,0,0,1,36,12.85Z"/><path class="cls-1" d="M44.19,17.14c0-2.1,1.68-4.1,3.61-4,2.4.13,3.84,1.33,3.92,4a3.77,3.77,0,1,1-7.53,0Zm3.74-3a2.11,2.11,0,0,0-1,.15,3,3,0,0,0-.41,5.15,2.11,2.11,0,0,0,2.33.23,3.16,3.16,0,0,0,1.69-2.09A2.88,2.88,0,0,0,47.93,14.19Z"/><path class="cls-1" d="M84.24,14.41c0,1.36,0,2.71,0,4.05s.17,1.42,1.46,1.1a1.9,1.9,0,0,1,.34,0c.35.5.33.86-.32,1.15a1.86,1.86,0,0,1-2.83-1.81c0-1.26,0-2.51,0-3.76,0-.45.08-.87-.62-1-.37-.08-.43-.58.11-.76a.61.61,0,0,0,.53-.47V11.05c1.13-.23,1.27-.16,1.32.71,0,.46,0,.92,0,1.33.5.48,1.17.05,1.65.45C85.78,14.56,84.82,14,84.24,14.41Z"/><path class="cls-1" d="M40.39,19.93c.26.63.07.92-.65,1-1.35.06-2-.5-2-1.84,0-2.69,0-5.38,0-8.07a.69.69,0,0,1,.21-.61c.15-.13.43-.06.7,0,.31.26.2.6.21.91V18C38.81,19.59,38.81,19.59,40.39,19.93Z"/><path class="cls-1" d="M18.68,13.87c-1.4-2.3.21-4.44,3-4.88A4.65,4.65,0,0,1,18.68,13.87Z"/><path class="cls-1" d="M10.16,16.89c1.29-2.55,2.69-2.5,4.73-1.75,1,.35.93.95.11,1.59C13.44,18,11.88,17.27,10.16,16.89Z"/><path class="cls-1" d="M22.63,22.2A4.15,4.15,0,0,1,18.54,18C20.42,17.69,21.67,18.94,22.63,22.2Z"/><path class="cls-1" d="M15.54,8.32c1.26,0,1.53.93,1.82,1.8a3,3,0,0,1-.83,3.46C14.94,12.36,14.78,11.55,15.54,8.32Z"/><path class="cls-1" d="M15.26,14.1c-2.35.26-4-1-4.32-3.1C13.38,10.46,15.26,11.77,15.26,14.1Z"/><path class="cls-1" d="M15.77,23.35c-.38-2-.27-3.83,1.54-5.18A3.08,3.08,0,0,1,15.77,23.35Z"/><path class="cls-1" d="M19.92,15c.83-2.35,1.65-2.73,4.87-2.33C24.21,14.49,22.83,15.17,19.92,15Z"/><path class="cls-1" d="M11.19,20.15c1-2.09,2.85-2.46,4.91-2.57C15.59,20,14,20.77,11.19,20.15Z"/><path class="cls-1" d="M24.48,17c-.92.41-1.57,1.12-2.61,1.09a2.81,2.81,0,0,1-1.81-.94.69.69,0,0,1,.06-1.1C21.23,15.15,23.59,15.59,24.48,17Z"/><path class="cls-1" d="M41.63,20.88v-4c0-.93,0-1.85,0-2.78,0-.72.3-.89,1-.66a5.15,5.15,0,0,1,.1,1.88c0,1.52,0,3,0,4.57C42.72,20.58,42.69,20.58,41.63,20.88Z"/><path class="cls-1" d="M79.48,13.48c.78-.23,1.15-.15,1.14.61,0,1.95,0,3.9,0,5.84a1.39,1.39,0,0,1-.09.54.48.48,0,0,1-.54.34.74.74,0,0,1-.4-.34,1.08,1.08,0,0,1-.09-.54c0-1.76,0-3.52,0-5.28Z"/><path class="cls-1" d="M79.45,10.41c.76-.16,1.28-.17,1.39.6s-.18.83-1.18.85C79.33,11.45,79.56,11,79.45,10.41Z"/><path class="cls-1" d="M42.69,10.43c0,1.32,0,1.32-.91,1.4C41.51,10.37,41.51,10.37,42.69,10.43Z"/></svg>
